<svg xmlns="http://www.w3.org/2000/svg" viewBox="0 0 370.21 69.11"><defs><linearGradient id="Gradiente_sem_nome_289" x1="14.28" y1="41.14" x2="40.36" y2="31" gradientUnits="userSpaceOnUse"><stop offset="0" stop-color="#ff4f4f"/><stop offset="1"/></linearGradient><style>.cls-1{fill:#ff4f4f}.cls-3{fill:#fff}</style></defs><g id="Camada_2" data-name="Camada 2"><g id="Camada_15" data-name="Camada 15"><rect class="cls-1" width="78.51" height="13.59" rx="6.79" ry="6.79"/><path class="cls-1" d="M56.7 25.66H21.81c-4.28.46-7.38 3.85-7.41 7.43 0 3.23 2.46 5.91 4.91 7a7.64 7.64 0 002.24.57l16.67-.09a2.44 2.44 0 012.31 3.78l-1.4 2.31-6.52 11.24a7.48 7.48 0 0012.52 8.15l17.44-30.22a6.78 6.78 0 00-5.87-10.17z"/><path d="M42.06 37.42a15.92 15.92 0 00-5.19-11.76h-15a7.56 7.56 0 00-7.48 7.19 7.89 7.89 0 007 7.75l17.18-.07A2.37 2.37 0 0140 41a2.46 2.46 0 01.94 1.64 3.1 3.1 0 010 .52 3.25 3.25 0 01-.11.54c0 .1-.06.17-.08.23v-.1a13.28 13.28 0 001.31-6.41z" fill="url(#Gradiente_sem_nome_289)"/><path class="cls-3" d="M97.67 49V14.13a1.43 1.43 0 011.43-1.43h7.72a1.43 1.43 0 011.43 1.43v7.45a.65.65 0 00.65.65h6.69a1.43 1.43 0 011.41 1.43v6.2a1.43 1.43 0 01-1.43 1.42h-6.67a.65.65 0 00-.65.65v15.29c0 2.44 1 3.62 3.41 3.62a10.67 10.67 0 003.34-.52 1.43 1.43 0 011.88 1.35v5.5a1.45 1.45 0 01-.79 1.28 15.86 15.86 0 01-7.56 1.71c-6.48 0-10.86-2.57-10.86-11.16zM126.24 22.23H134a1.43 1.43 0 011.43 1.43v3.41a.62.62 0 001.17.31 10.78 10.78 0 019.24-5.84 1.43 1.43 0 011.45 1.46v9.6h-.56c-7 0-11.34 4.25-11.34 13.16v12.35a1.43 1.43 0 01-1.39 1.43h-7.72a1.43 1.43 0 01-1.43-1.43V23.66a1.43 1.43 0 011.39-1.43zM151.54 41v-.14c0-12.46 8.14-19.28 17-19.28A14.1 14.1 0 01179.17 26a.56.56 0 001-.39v-2a1.43 1.43 0 011.43-1.43h7.72a1.43 1.43 0 011.43 1.43v34.5a1.43 1.43 0 01-1.43 1.43h-7.72a1.43 1.43 0 01-1.43-1.43v-2.33a.56.56 0 00-1-.36 13.43 13.43 0 01-10.63 4.81c-8.72 0-17-6.82-17-19.23zm28.74 0v-.14c0-6.2-4.11-10.3-9.05-10.3s-9.11 4-9.11 10.3V41c0 6.19 4.17 10.3 9.11 10.3s9.05-4.15 9.05-10.3zM198.38 41.09V41a19.15 19.15 0 0119.55-19.42c6.4 0 10.61 2 13.94 5.25a1.44 1.44 0 010 2l-4.55 4.89a1.44 1.44 0 01-2 .06 10.24 10.24 0 00-7.47-3.08c-5.29 0-9 4.66-9 10.16V41c0 5.7 3.68 10.3 9.46 10.3a11 11 0 007.58-3.09 1.44 1.44 0 011.94.08l4.26 4.32a1.42 1.42 0 010 2c-3.4 3.42-7.47 5.79-14.26 5.79a19 19 0 01-19.45-19.31zM241.66 49V14.13a1.43 1.43 0 011.43-1.43h7.73a1.43 1.43 0 011.42 1.43v7.54a.57.57 0 00.57.56h6.78a1.43 1.43 0 011.41 1.43v6.2a1.43 1.43 0 01-1.42 1.42h-6.78a.58.58 0 00-.57.57v15.37c0 2.44 1 3.62 3.41 3.62a10.62 10.62 0 003.34-.52 1.43 1.43 0 011.88 1.35v5.5a1.45 1.45 0 01-.79 1.28 15.83 15.83 0 01-7.56 1.71c-6.46 0-10.85-2.57-10.85-11.16zM270.44 8.73h8.28a1.43 1.43 0 011.43 1.43v6.54a1.43 1.43 0 01-1.43 1.43h-8.28A1.43 1.43 0 01269 16.7v-6.54a1.43 1.43 0 011.44-1.43zm.28 13.5h7.73a1.43 1.43 0 011.42 1.43v34.45a1.43 1.43 0 01-1.42 1.43h-7.73a1.43 1.43 0 01-1.43-1.43V23.66a1.43 1.43 0 011.43-1.43zM288 41.09V41c0-10.72 8.63-19.42 20.25-19.42s20.11 8.56 20.11 19.28V41c0 10.71-8.63 19.41-20.25 19.41S288 51.81 288 41.09zm29.92 0V41c0-5.5-4-10.3-9.81-10.3-6.06 0-9.68 4.66-9.68 10.16V41c0 5.49 4 10.3 9.82 10.3 6.07-.04 9.69-4.71 9.69-10.21zM337.46 22.23h7.73a1.43 1.43 0 011.43 1.43V26a.56.56 0 001 .36 12.54 12.54 0 019.93-4.77c8 0 12.67 5.29 12.67 13.85v22.67a1.43 1.43 0 01-1.43 1.43h-7.72a1.43 1.43 0 01-1.43-1.43V38.73c0-5-2.37-7.59-6.4-7.59s-6.61 2.58-6.61 7.59v19.38a1.43 1.43 0 01-1.43 1.43h-7.73a1.43 1.43 0 01-1.47-1.43V23.66a1.43 1.43 0 011.46-1.43z"/></g></g></svg>