<?xml version="1.0" encoding="UTF-8"?>
<svg id="Camada_2" data-name="Camada 2" xmlns="http://www.w3.org/2000/svg" viewBox="0 0 44.78 39.43">
  <defs>
    <style>
      .cls-1 {
        fill: #f2f2f2;
        stroke-width: 0px;
      }
    </style>
  </defs>
  <g id="REF">
    <g>
      <rect class="cls-1" x="0" y="0" width="44.78" height="7.75" rx="3.87" ry="3.87"/>
      <g>
        <path class="cls-1" d="m34.27,15.15c-.59-.34-1.25-.52-1.93-.52h-11.39c.21.15.4.34.57.53.78.85,1.32,1.9,1.69,2.98.36,1.07.64,2.18.7,3.31.03.56,0,1.13-.1,1.68-.25,1.31-.84,2.33-1.49,3.47l-3.72,6.41c-1.18,2.04-.48,4.65,1.56,5.83,1.89,1.09,4.3.58,5.58-1.18l9.95-17.24c1.07-1.85.44-4.21-1.41-5.28Z"/>
        <path class="cls-1" d="m20.1,18.15c-.37-1.08-.91-2.13-1.69-2.98-.17-.19-.36-.38-.57-.53h-5.37s-.04,0-.06,0c-2.26.05-4.1,1.84-4.21,4.1,0,.04,0,.08,0,.12.02.63.18,1.22.43,1.76.43.91,1.16,1.65,2.06,2.1.46.22.96.38,1.49.44l8.5-.03c.1-.55.13-1.11.1-1.66-.06-1.13-.33-2.24-.7-3.31Z"/>
      </g>
    </g>
  </g>
</svg>