<?xml version="1.0" encoding="UTF-8"?>
<svg id="Camada_2" data-name="Camada 2" xmlns="http://www.w3.org/2000/svg" viewBox="0 0 251.05 39.43">
  <defs>
    <style>
      .cls-1 {
        fill: #f2f2f2;
        stroke-width: 0px;
      }
    </style>
  </defs>
  <g id="REF">
    <g>
      <path class="cls-1" d="m218.36,30.08h2.28c.61,0,1.1.49,1.1,1.1v2.22c0,.61-.49,1.1-1.1,1.1h-2.28c-.61,0-1.1-.49-1.1-1.1v-2.22c0-.61.49-1.1,1.1-1.1Z"/>
      <path class="cls-1" d="m225.34,23.28v7.03c0,3.43,1.74,4.45,4.32,4.45,1.06,0,1.9-.19,2.63-.5.41-.18.53-.53.69-1.03,0,0,.42-1.95-.16-2.29s-1.14.12-1.92.12c-.94,0-1.35-.47-1.35-1.44v-5.23c0-.61.49-1.1,1.1-1.1h1.28c.61,0,1.1-.49,1.1-1.1v-1.4c0-.61-.49-1.1-1.1-1.1h-1.28c-.61,0-1.1-.49-1.1-1.1v-1.59c0-.61-.49-1.1-1.1-1.1h-2c-.61,0-1.1.49-1.1,1.1v6.29Z"/>
      <path class="cls-1" d="m235,27.18v-.06c0-4.26,3.43-7.72,8.05-7.72s7.99,3.4,7.99,7.66v.06c0,4.26-3.43,7.72-8.05,7.72s-7.99-3.4-7.99-7.66Zm11.89,0v-.06c0-2.19-1.58-4.09-3.9-4.09s-3.84,1.85-3.84,4.04v.06c0,2.18,1.58,4.09,3.9,4.09s3.84-1.85,3.84-4.04Z"/>
      <g>
        <path class="cls-1" d="m55.53,28.38V8.49c0-.45.37-.82.82-.82h4.4c.45,0,.82.37.82.82h0v4.25c0,.2.17.37.37.37h3.82c.45,0,.8.37.8.82v3.54c0,.45-.37.81-.82.81h-3.8c-.2,0-.37.17-.37.37h0v8.72c0,1.39.57,2.06,1.95,2.06.65,0,1.29-.1,1.91-.3.43-.14.89.09,1.03.52.03.08.04.17.04.25v3.14c0,.31-.18.59-.45.73-1.33.68-2.82,1.01-4.31.98-3.7,0-6.19-1.47-6.19-6.37Z"/>
        <path class="cls-1" d="m71.82,13.11h4.43c.45,0,.82.37.82.82v1.95c0,.2.14.36.34.37.14,0,.27-.07.33-.19,1.02-1.98,3.04-3.26,5.27-3.33.45,0,.82.35.83.8,0,0,0,.02,0,.03v5.48h-.32c-3.99,0-6.47,2.42-6.47,7.51v7.04c0,.44-.35.8-.79.82h-4.4c-.45,0-.82-.37-.82-.82h0V13.92c0-.44.35-.8.79-.82Z"/>
        <path class="cls-1" d="m86.25,23.81v-.08c0-7.11,4.64-11,9.7-11,2.29-.06,4.49.86,6.06,2.52.11.14.31.16.45.06.09-.07.13-.17.12-.28v-1.14c0-.45.37-.82.82-.82h4.4c.45,0,.82.37.82.82v19.68c0,.45-.37.82-.82.82h-4.4c-.45,0-.82-.37-.82-.82v-1.33c0-.18-.14-.32-.31-.33-.1,0-.2.04-.26.12-1.5,1.79-3.73,2.8-6.06,2.74-4.97,0-9.7-3.89-9.7-10.97Zm16.39,0v-.08c0-3.54-2.34-5.88-5.16-5.88s-5.2,2.28-5.2,5.88v.08c0,3.53,2.38,5.88,5.2,5.88s5.16-2.37,5.16-5.88Z"/>
        <path class="cls-1" d="m112.97,23.87v-.05c-.09-6.03,4.73-10.99,10.77-11.08.13,0,.26,0,.39,0,3.65,0,6.05,1.14,7.95,2.99.31.32.31.82,0,1.14l-2.6,2.79c-.31.32-.81.33-1.14.03-1.12-1.14-2.66-1.78-4.26-1.76-3.02,0-5.13,2.66-5.13,5.8v.08c0,3.25,2.1,5.88,5.4,5.88,1.61,0,3.16-.64,4.32-1.76.33-.27.8-.25,1.11.05l2.43,2.46c.31.32.31.83,0,1.14-1.94,1.95-4.26,3.3-8.13,3.3-5.98.14-10.95-4.59-11.09-10.58,0-.15,0-.29,0-.44Z"/>
        <path class="cls-1" d="m137.66,28.38V8.49c0-.45.37-.82.82-.82h4.41c.45,0,.81.37.81.82v4.3c0,.18.15.32.33.32h3.87c.45,0,.8.37.8.82v3.54c0,.45-.36.81-.81.81h-3.87c-.18,0-.32.15-.33.33v8.77c0,1.39.57,2.06,1.95,2.06.65,0,1.29-.1,1.91-.3.43-.14.89.09,1.03.52.03.08.04.17.04.25v3.14c0,.31-.18.59-.45.73-1.33.68-2.82,1.01-4.31.98-3.68,0-6.19-1.47-6.19-6.37Z"/>
        <path class="cls-1" d="m154.08,5.41h4.72c.45,0,.82.37.82.82v3.73c0,.45-.37.82-.82.82h-4.72c-.45,0-.82-.36-.82-.81,0,0,0,0,0,0v-3.73c0-.45.37-.82.82-.82,0,0,0,0,0,0Zm.16,7.7h4.41c.45,0,.81.37.81.82v19.65c0,.45-.36.81-.81.82h-4.41c-.45,0-.82-.37-.82-.82V13.92c0-.45.37-.82.82-.82Z"/>
        <path class="cls-1" d="m164.09,23.87v-.05c0-6.11,4.92-11.08,11.55-11.08s11.47,4.88,11.47,11v.08c0,6.11-4.92,11.07-11.55,11.07s-11.47-4.91-11.47-11.02Zm17.07,0v-.05c0-3.14-2.28-5.88-5.6-5.88s-5.52,2.66-5.52,5.8v.08c0,3.13,2.28,5.88,5.6,5.88,3.46-.02,5.53-2.69,5.53-5.82h-.01Z"/>
        <path class="cls-1" d="m192.3,13.11h4.41c.45,0,.82.37.82.82v1.33c0,.18.14.32.31.33.1,0,.2-.04.26-.12,1.37-1.73,3.46-2.74,5.66-2.72,4.56,0,7.23,3.02,7.23,7.9v12.93c0,.45-.37.82-.82.82h-4.4c-.45,0-.82-.37-.82-.82v-11.05c0-2.85-1.35-4.33-3.65-4.33s-3.77,1.47-3.77,4.33v11.05c0,.45-.37.82-.82.82h-4.41c-.45.01-.83-.34-.84-.79,0,0,0-.02,0-.02V13.92c0-.45.37-.82.82-.82,0,0,.01,0,.02,0Z"/>
      </g>
      <g>
        <rect class="cls-1" x="0" y="0" width="44.78" height="7.75" rx="3.87" ry="3.87"/>
        <g>
          <path class="cls-1" d="m34.27,15.15c-.59-.34-1.25-.52-1.93-.52h-11.39c.21.15.4.34.57.53.78.85,1.32,1.9,1.69,2.98.36,1.07.64,2.18.7,3.31.03.56,0,1.13-.1,1.68-.25,1.31-.84,2.33-1.49,3.47l-3.72,6.41c-1.18,2.04-.48,4.65,1.56,5.83,1.89,1.09,4.3.58,5.58-1.18l9.95-17.24c1.07-1.85.44-4.21-1.41-5.28Z"/>
          <path class="cls-1" d="m20.1,18.15c-.37-1.08-.91-2.13-1.69-2.98-.17-.19-.36-.38-.57-.53h-5.37s-.04,0-.06,0c-2.26.05-4.1,1.84-4.21,4.1,0,.04,0,.08,0,.12.02.63.18,1.22.43,1.76.43.91,1.16,1.65,2.06,2.1.46.22.96.38,1.49.44l8.5-.03c.1-.55.13-1.11.1-1.66-.06-1.13-.33-2.24-.7-3.31Z"/>
        </g>
      </g>
    </g>
  </g>
</svg>