<svg xmlns="http://www.w3.org/2000/svg" viewBox="0 0 78.51 69.123"><defs><linearGradient id="a" x1="-.004" y1=".847" x2=".938" y2=".292" gradientUnits="objectBoundingBox"><stop offset="0" stop-color="white"/><stop offset="1"/></linearGradient><style>.a{fill:white}</style></defs><g transform="translate(-681 141)"><rect class="a" width="78.51" height="13.59" rx="6.79" transform="translate(681 -141)"/><path class="a" d="M737.7-115.34h-34.89c-4.28.46-7.38 3.85-7.41 7.43 0 3.23 2.46 5.91 4.91 7a7.64 7.64 0 002.24.57l16.67-.09a2.44 2.44 0 012.31 3.78l-1.4 2.31-6.52 11.24a7.48 7.48 0 0012.52 8.15l17.44-30.22a6.78 6.78 0 00-5.87-10.17z"/><path d="M42.06 37.42a15.92 15.92 0 00-5.19-11.76h-15a7.56 7.56 0 00-7.48 7.19 7.89 7.89 0 007 7.75l17.18-.07A2.37 2.37 0 0140 41a2.46 2.46 0 01.94 1.64 3.1 3.1 0 010 .52 3.25 3.25 0 01-.11.54.618.618 0 01-.08.23v-.1a13.28 13.28 0 001.31-6.41z" transform="translate(681 -141)" fill="url(#a)"/></g></svg>